<svg id="SvgjsSvg1809" width="150" height="75" xmlns="http://www.w3.org/2000/svg" version="1.1" xlink="http://www.w3.org/1999/xlink" xmlns:svgjs="http://svgjs.com/svgjs" preserveAspectRatio="xMidYMid meet" viewBox="0 0 300 100" overflow="visible"><defs id="SvgjsDefs1810"></defs><g id="SvgjsG1811" transform="scale(0.45483489493313933)" opacity="1"><g id="SvgjsG1812" class="H7s60yqEgx" transform="translate(164.89499999999998, -87.59792676182249) scale(3.2978667878405763)" light-content="false" non-strokable="false" fill="#8524b2"><path d="M0 26.562v46.875h1.563V26.562zm98.438 0v46.875h1.563V26.562zm-93.75 6.25v6.25h28.125v-6.25zm17.188 9.375v6.25h42.188v-6.25zm35.938 9.375v6.25h14.062v-6.25zm7.813 9.375v6.25h29.688v-6.25z"></path></g><g id="SvgjsG1813" class="text" transform="translate(327.80999755859375, 215.4275167774216) scale(1)" light-content="false" fill="#8524b2"><path d="M-298.71 -40.11C-301.51 -41.37 -304.81 -42 -308.61 -42L-327.81 -42L-327.81 0L-315.93 0L-315.93 -10.98L-308.61 -10.98C-304.81 -10.98 -301.51 -11.61 -298.71 -12.87C-295.91 -14.13 -293.75 -15.92 -292.23 -18.24C-290.71 -20.56 -289.95 -23.3 -289.95 -26.46C-289.95 -29.62 -290.71 -32.37 -292.23 -34.71C-293.75 -37.05 -295.91 -38.85 -298.71 -40.11ZM-303.81 -21.93C-305.05 -20.87 -306.89 -20.34 -309.33 -20.34L-315.93 -20.34L-315.93 -32.64L-309.33 -32.64C-306.89 -32.64 -305.05 -32.1 -303.81 -31.02C-302.57 -29.94 -301.95 -28.42 -301.95 -26.46C-301.95 -24.5 -302.57 -22.99 -303.81 -21.93Z M-265.83 -11.16L-258.21 0L-245.49 0L-254.55 -13.2C-251.91 -14.48 -249.88 -16.25 -248.46 -18.51C-247.04 -20.77 -246.33 -23.42 -246.33 -26.46C-246.33 -29.62 -247.09 -32.37 -248.61 -34.71C-250.13 -37.05 -252.29 -38.85 -255.09 -40.11C-257.89 -41.37 -261.19 -42 -264.99 -42L-284.19 -42L-284.19 0L-272.31 0L-272.31 -11.16ZM-260.19 -31.02C-258.95 -29.94 -258.33 -28.42 -258.33 -26.46C-258.33 -24.5 -258.95 -22.99 -260.19 -21.93C-261.43 -20.87 -263.27 -20.34 -265.71 -20.34L-272.31 -20.34L-272.31 -32.64L-265.71 -32.64C-263.27 -32.64 -261.43 -32.1 -260.19 -31.02Z M-230.58 -1.98C-227.04 -0.1 -223.05 0.84 -218.61 0.84C-214.17 0.84 -210.18 -0.1 -206.64 -1.98C-203.1 -3.86 -200.32 -6.46 -198.3 -9.78C-196.28 -13.1 -195.27 -16.84 -195.27 -21C-195.27 -25.16 -196.28 -28.9 -198.3 -32.22C-200.32 -35.54 -203.1 -38.14 -206.64 -40.02C-210.18 -41.9 -214.17 -42.84 -218.61 -42.84C-223.05 -42.84 -227.04 -41.9 -230.58 -40.02C-234.12 -38.14 -236.9 -35.54 -238.92 -32.22C-240.94 -28.9 -241.95 -25.16 -241.95 -21C-241.95 -16.84 -240.94 -13.1 -238.92 -9.78C-236.9 -6.46 -234.12 -3.86 -230.58 -1.98ZM-212.85 -10.5C-214.57 -9.5 -216.49 -9 -218.61 -9C-220.73 -9 -222.65 -9.5 -224.37 -10.5C-226.09 -11.5 -227.45 -12.91 -228.45 -14.73C-229.45 -16.55 -229.95 -18.64 -229.95 -21C-229.95 -23.36 -229.45 -25.45 -228.45 -27.27C-227.45 -29.09 -226.09 -30.5 -224.37 -31.5C-222.65 -32.5 -220.73 -33 -218.61 -33C-216.49 -33 -214.57 -32.5 -212.85 -31.5C-211.13 -30.5 -209.77 -29.09 -208.77 -27.27C-207.77 -25.45 -207.27 -23.36 -207.27 -21C-207.27 -18.64 -207.77 -16.55 -208.77 -14.73C-209.77 -12.91 -211.13 -11.5 -212.85 -10.5Z M-189.15 -0.75C-186.63 0.31 -183.83 0.84 -180.75 0.84C-175.43 0.84 -171.4 -0.52 -168.66 -3.24C-165.92 -5.96 -164.55 -10.04 -164.55 -15.48L-164.55 -42L-190.83 -42L-190.83 -32.82L-176.31 -32.82L-176.31 -14.76C-176.31 -12.76 -176.76 -11.24 -177.66 -10.2C-178.56 -9.16 -179.87 -8.64 -181.59 -8.64C-184.19 -8.64 -186.61 -10.1 -188.85 -13.02L-195.33 -5.34C-193.73 -3.34 -191.67 -1.81 -189.15 -0.75Z M-122.79 -9.18L-144.75 -9.18L-144.75 -16.86L-126.09 -16.86L-126.09 -25.74L-144.75 -25.74L-144.75 -32.82L-123.57 -32.82L-123.57 -42L-156.51 -42L-156.51 0L-122.79 0Z M-107.16 -1.95C-103.66 -0.09 -99.71 0.84 -95.31 0.84C-91.47 0.84 -88.01 0.16 -84.93 -1.2C-81.85 -2.56 -79.29 -4.52 -77.25 -7.08L-84.81 -13.92C-87.53 -10.64 -90.83 -9 -94.71 -9C-96.99 -9 -99.02 -9.5 -100.8 -10.5C-102.58 -11.5 -103.96 -12.91 -104.94 -14.73C-105.92 -16.55 -106.41 -18.64 -106.41 -21C-106.41 -23.36 -105.92 -25.45 -104.94 -27.27C-103.96 -29.09 -102.58 -30.5 -100.8 -31.5C-99.02 -32.5 -96.99 -33 -94.71 -33C-90.83 -33 -87.53 -31.36 -84.81 -28.08L-77.25 -34.92C-79.29 -37.48 -81.85 -39.44 -84.93 -40.8C-88.01 -42.16 -91.47 -42.84 -95.31 -42.84C-99.71 -42.84 -103.66 -41.91 -107.16 -40.05C-110.66 -38.19 -113.41 -35.6 -115.41 -32.28C-117.41 -28.96 -118.41 -25.2 -118.41 -21C-118.41 -16.8 -117.41 -13.04 -115.41 -9.72C-113.41 -6.4 -110.66 -3.81 -107.16 -1.95Z M-63.39 -32.58L-63.39 0L-51.51 0L-51.51 -32.58L-38.67 -32.58L-38.67 -42L-76.29 -42L-76.29 -32.58Z M11.37 -8.16L14.67 0L27.03 0L8.43 -42L-3.27 -42L-21.81 0L-9.69 0L-6.39 -8.16ZM7.89 -16.92L-2.91 -16.92L2.49 -30.36Z M35.25 -0.42C38.45 0.42 41.75 0.84 45.15 0.84C49.15 0.84 52.55 0.23 55.35 -0.99C58.15 -2.21 60.25 -3.84 61.65 -5.88C63.05 -7.92 63.75 -10.2 63.75 -12.72C63.75 -15.64 62.98 -17.95 61.44 -19.65C59.9 -21.35 58.08 -22.59 55.98 -23.37C53.88 -24.15 51.23 -24.88 48.03 -25.56C45.19 -26.16 43.13 -26.74 41.85 -27.3C40.57 -27.86 39.93 -28.7 39.93 -29.82C39.93 -30.94 40.47 -31.85 41.55 -32.55C42.63 -33.25 44.35 -33.6 46.71 -33.6C50.47 -33.6 54.35 -32.52 58.35 -30.36L62.01 -39.18C59.97 -40.38 57.61 -41.29 54.93 -41.91C52.25 -42.53 49.53 -42.84 46.77 -42.84C42.73 -42.84 39.32 -42.24 36.54 -41.04C33.76 -39.84 31.67 -38.21 30.27 -36.15C28.87 -34.09 28.17 -31.78 28.17 -29.22C28.17 -26.3 28.93 -23.98 30.45 -22.26C31.97 -20.54 33.79 -19.29 35.91 -18.51C38.03 -17.73 40.67 -17 43.83 -16.32C46.71 -15.68 48.8 -15.07 50.1 -14.49C51.4 -13.91 52.05 -13.02 52.05 -11.82C52.05 -9.54 49.77 -8.4 45.21 -8.4C42.81 -8.4 40.37 -8.78 37.89 -9.54C35.41 -10.3 33.23 -11.3 31.35 -12.54L27.45 -3.78C29.45 -2.38 32.05 -1.26 35.25 -0.42Z M74.07 -0.42C77.27 0.42 80.57 0.84 83.97 0.84C87.97 0.84 91.37 0.23 94.17 -0.99C96.97 -2.21 99.07 -3.84 100.47 -5.88C101.87 -7.92 102.57 -10.2 102.57 -12.72C102.57 -15.64 101.8 -17.95 100.26 -19.65C98.72 -21.35 96.9 -22.59 94.8 -23.37C92.7 -24.15 90.05 -24.88 86.85 -25.56C84.01 -26.16 81.95 -26.74 80.67 -27.3C79.39 -27.86 78.75 -28.7 78.75 -29.82C78.75 -30.94 79.29 -31.85 80.37 -32.55C81.45 -33.25 83.17 -33.6 85.53 -33.6C89.29 -33.6 93.17 -32.52 97.17 -30.36L100.83 -39.18C98.79 -40.38 96.43 -41.29 93.75 -41.91C91.07 -42.53 88.35 -42.84 85.59 -42.84C81.55 -42.84 78.14 -42.24 75.36 -41.04C72.58 -39.84 70.49 -38.21 69.09 -36.15C67.69 -34.09 66.99 -31.78 66.99 -29.22C66.99 -26.3 67.75 -23.98 69.27 -22.26C70.79 -20.54 72.61 -19.29 74.73 -18.51C76.85 -17.73 79.49 -17 82.65 -16.32C85.53 -15.68 87.62 -15.07 88.92 -14.49C90.22 -13.91 90.87 -13.02 90.87 -11.82C90.87 -9.54 88.59 -8.4 84.03 -8.4C81.63 -8.4 79.19 -8.78 76.71 -9.54C74.23 -10.3 72.05 -11.3 70.17 -12.54L66.27 -3.78C68.27 -2.38 70.87 -1.26 74.07 -0.42Z M108.03 -42L108.03 0L119.91 0L119.91 -42Z M133.23 -0.42C136.43 0.42 139.73 0.84 143.13 0.84C147.13 0.84 150.53 0.23 153.33 -0.99C156.13 -2.21 158.23 -3.84 159.63 -5.88C161.03 -7.92 161.73 -10.2 161.73 -12.72C161.73 -15.64 160.96 -17.95 159.42 -19.65C157.88 -21.35 156.06 -22.59 153.96 -23.37C151.86 -24.15 149.21 -24.88 146.01 -25.56C143.17 -26.16 141.11 -26.74 139.83 -27.3C138.55 -27.86 137.91 -28.7 137.91 -29.82C137.91 -30.94 138.45 -31.85 139.53 -32.55C140.61 -33.25 142.33 -33.6 144.69 -33.6C148.45 -33.6 152.33 -32.52 156.33 -30.36L159.99 -39.18C157.95 -40.38 155.59 -41.29 152.91 -41.91C150.23 -42.53 147.51 -42.84 144.75 -42.84C140.71 -42.84 137.3 -42.24 134.52 -41.04C131.74 -39.84 129.65 -38.21 128.25 -36.15C126.85 -34.09 126.15 -31.78 126.15 -29.22C126.15 -26.3 126.91 -23.98 128.43 -22.26C129.95 -20.54 131.77 -19.29 133.89 -18.51C136.01 -17.73 138.65 -17 141.81 -16.32C144.69 -15.68 146.78 -15.07 148.08 -14.49C149.38 -13.91 150.03 -13.02 150.03 -11.82C150.03 -9.54 147.75 -8.4 143.19 -8.4C140.79 -8.4 138.35 -8.78 135.87 -9.54C133.39 -10.3 131.21 -11.3 129.33 -12.54L125.43 -3.78C127.43 -2.38 130.03 -1.26 133.23 -0.42Z M175.53 -32.58L175.53 0L187.41 0L187.41 -32.58L200.25 -32.58L200.25 -42L162.63 -42L162.63 -32.58Z M230.73 -8.16L234.03 0L246.39 0L227.79 -42L216.09 -42L197.55 0L209.67 0L212.97 -8.16ZM227.25 -16.92L216.45 -16.92L221.85 -30.36Z M289.71 -42L278.07 -42L278.07 -19.62L259.53 -42L249.75 -42L249.75 0L261.39 0L261.39 -22.38L279.93 0L289.71 0Z M307.05 -32.58L307.05 0L318.93 0L318.93 -32.58L331.77 -32.58L331.77 -42L294.15 -42L294.15 -32.58Z"></path></g><g id="SvgjsG1814" class="text" transform="translate(330.21000030517575, 245.70751620521702) scale(1.5)" light-content="false" fill="#333333"><path d="M-118.29 -0.26C-117.28 0.05 -116.24 0.2 -115.16 0.2C-113.93 0.2 -112.89 0.01 -112.04 -0.36C-111.19 -0.73 -110.55 -1.23 -110.13 -1.86C-109.71 -2.49 -109.5 -3.19 -109.5 -3.96C-109.5 -4.87 -109.74 -5.59 -110.21 -6.12C-110.68 -6.65 -111.25 -7.05 -111.92 -7.31C-112.59 -7.57 -113.44 -7.82 -114.48 -8.06C-115.24 -8.25 -115.84 -8.41 -116.28 -8.56C-116.72 -8.71 -117.08 -8.91 -117.37 -9.16C-117.66 -9.41 -117.8 -9.74 -117.8 -10.14C-117.8 -10.71 -117.55 -11.17 -117.05 -11.52C-116.55 -11.87 -115.79 -12.04 -114.76 -12.04C-114.13 -12.04 -113.49 -11.95 -112.82 -11.76C-112.15 -11.57 -111.51 -11.3 -110.9 -10.94L-110.08 -12.96C-110.68 -13.36 -111.39 -13.67 -112.22 -13.88C-113.05 -14.09 -113.89 -14.2 -114.74 -14.2C-115.97 -14.2 -117 -14.01 -117.85 -13.64C-118.7 -13.27 -119.33 -12.76 -119.75 -12.13C-120.17 -11.5 -120.38 -10.79 -120.38 -10.02C-120.38 -9.1 -120.14 -8.37 -119.67 -7.83C-119.2 -7.29 -118.63 -6.89 -117.97 -6.64C-117.31 -6.39 -116.45 -6.13 -115.38 -5.88C-114.62 -5.69 -114.02 -5.53 -113.58 -5.38C-113.14 -5.23 -112.78 -5.03 -112.49 -4.77C-112.2 -4.51 -112.06 -4.18 -112.06 -3.78C-112.06 -3.23 -112.32 -2.79 -112.83 -2.46C-113.34 -2.13 -114.12 -1.96 -115.16 -1.96C-116 -1.96 -116.84 -2.1 -117.67 -2.39C-118.5 -2.68 -119.21 -3.05 -119.78 -3.5L-120.68 -1.48C-120.09 -0.97 -119.3 -0.57 -118.29 -0.26Z M-99.47 -9.67C-100.3 -10.42 -101.51 -10.8 -103.08 -10.8C-103.96 -10.8 -104.79 -10.69 -105.58 -10.46C-106.37 -10.23 -107.04 -9.91 -107.6 -9.48L-106.62 -7.66C-106.22 -7.99 -105.73 -8.25 -105.15 -8.44C-104.57 -8.63 -103.98 -8.72 -103.38 -8.72C-102.5 -8.72 -101.84 -8.52 -101.39 -8.12C-100.94 -7.72 -100.72 -7.15 -100.72 -6.4L-100.72 -6.24L-103.48 -6.24C-105.01 -6.24 -106.14 -5.95 -106.85 -5.37C-107.56 -4.79 -107.92 -4.02 -107.92 -3.06C-107.92 -2.45 -107.76 -1.9 -107.43 -1.41C-107.1 -0.92 -106.64 -0.54 -106.04 -0.27C-105.44 0 -104.74 0.14 -103.94 0.14C-103.14 0.14 -102.46 0.02 -101.89 -0.23C-101.32 -0.48 -100.89 -0.83 -100.58 -1.3L-100.58 0L-98.22 0L-98.22 -6.26C-98.22 -7.78 -98.64 -8.92 -99.47 -9.67ZM-101.75 -2.11C-102.24 -1.82 -102.79 -1.68 -103.42 -1.68C-104.06 -1.68 -104.56 -1.81 -104.92 -2.08C-105.28 -2.35 -105.46 -2.71 -105.46 -3.16C-105.46 -4.11 -104.74 -4.58 -103.3 -4.58L-100.72 -4.58L-100.72 -3.34C-100.92 -2.81 -101.26 -2.4 -101.75 -2.11Z M-92.26 -11.24C-92.26 -12.39 -91.73 -12.96 -90.68 -12.96C-90.19 -12.96 -89.73 -12.81 -89.3 -12.52L-88.6 -14.4C-89.15 -14.79 -89.9 -14.98 -90.86 -14.98C-92.07 -14.98 -93.01 -14.65 -93.68 -13.99C-94.35 -13.33 -94.68 -12.43 -94.68 -11.28L-94.68 -10.6L-96.44 -10.6L-96.44 -8.6L-94.68 -8.6L-94.68 0L-92.18 0L-92.18 -8.6L-89.32 -8.6L-89.32 -10.6L-92.26 -10.6Z M-77.8 -4.54C-77.77 -4.86 -77.76 -5.11 -77.76 -5.28C-77.76 -6.37 -77.99 -7.34 -78.45 -8.17C-78.91 -9 -79.55 -9.65 -80.37 -10.11C-81.19 -10.57 -82.12 -10.8 -83.16 -10.8C-84.21 -10.8 -85.16 -10.57 -86 -10.1C-86.84 -9.63 -87.5 -8.98 -87.97 -8.15C-88.44 -7.32 -88.68 -6.38 -88.68 -5.34C-88.68 -4.29 -88.44 -3.34 -87.95 -2.51C-87.46 -1.68 -86.77 -1.03 -85.88 -0.56C-84.99 -0.09 -83.95 0.14 -82.78 0.14C-81.86 0.14 -81.03 -0.01 -80.3 -0.3C-79.57 -0.59 -78.96 -1.03 -78.48 -1.6L-79.82 -3.14C-80.58 -2.37 -81.55 -1.98 -82.72 -1.98C-83.64 -1.98 -84.41 -2.21 -85.03 -2.67C-85.65 -3.13 -86.03 -3.75 -86.18 -4.54ZM-85.19 -8.09C-84.64 -8.56 -83.96 -8.8 -83.16 -8.8C-82.35 -8.8 -81.67 -8.56 -81.12 -8.08C-80.57 -7.6 -80.25 -6.97 -80.14 -6.2L-86.2 -6.2C-86.08 -6.99 -85.74 -7.62 -85.19 -8.09Z M-73.38 -2.72C-73.69 -3.03 -74.07 -3.18 -74.54 -3.18C-75.01 -3.18 -75.39 -3.03 -75.7 -2.72C-76.01 -2.41 -76.16 -2.01 -76.16 -1.52C-76.16 -1.17 -76.08 -0.87 -75.91 -0.61C-75.74 -0.35 -75.51 -0.16 -75.22 -0.04L-76.02 3.02L-74.4 3.02L-73.38 0.2C-73.19 -0.27 -73.07 -0.62 -73.01 -0.85C-72.95 -1.08 -72.92 -1.31 -72.92 -1.52C-72.92 -2.01 -73.07 -2.41 -73.38 -2.72Z M-55.56 0L-52.76 0L-55.98 -4.6C-55.02 -4.97 -54.28 -5.54 -53.77 -6.3C-53.26 -7.06 -53 -7.97 -53 -9.02C-53 -10.05 -53.24 -10.93 -53.72 -11.68C-54.2 -12.43 -54.89 -13 -55.79 -13.4C-56.69 -13.8 -57.75 -14 -58.96 -14L-64.72 -14L-64.72 0L-62.12 0L-62.12 -4.08L-58.96 -4.08C-58.72 -4.08 -58.54 -4.09 -58.42 -4.1ZM-56.5 -11.08C-55.91 -10.6 -55.62 -9.91 -55.62 -9.02C-55.62 -8.13 -55.91 -7.44 -56.5 -6.95C-57.09 -6.46 -57.95 -6.22 -59.08 -6.22L-62.12 -6.22L-62.12 -11.8L-59.08 -11.8C-57.95 -11.8 -57.09 -11.56 -56.5 -11.08Z M-40.34 -4.54C-40.31 -4.86 -40.3 -5.11 -40.3 -5.28C-40.3 -6.37 -40.53 -7.34 -40.99 -8.17C-41.45 -9 -42.09 -9.65 -42.91 -10.11C-43.73 -10.57 -44.66 -10.8 -45.7 -10.8C-46.75 -10.8 -47.7 -10.57 -48.54 -10.1C-49.38 -9.63 -50.04 -8.98 -50.51 -8.15C-50.98 -7.32 -51.22 -6.38 -51.22 -5.34C-51.22 -4.29 -50.98 -3.34 -50.49 -2.51C-50 -1.68 -49.31 -1.03 -48.42 -0.56C-47.53 -0.09 -46.49 0.14 -45.32 0.14C-44.4 0.14 -43.57 -0.01 -42.84 -0.3C-42.11 -0.59 -41.5 -1.03 -41.02 -1.6L-42.36 -3.14C-43.12 -2.37 -44.09 -1.98 -45.26 -1.98C-46.18 -1.98 -46.95 -2.21 -47.57 -2.67C-48.19 -3.13 -48.57 -3.75 -48.72 -4.54ZM-47.73 -8.09C-47.18 -8.56 -46.5 -8.8 -45.7 -8.8C-44.89 -8.8 -44.21 -8.56 -43.66 -8.08C-43.11 -7.6 -42.79 -6.97 -42.68 -6.2L-48.74 -6.2C-48.62 -6.99 -48.28 -7.62 -47.73 -8.09Z M-37.9 -14.84L-37.9 0L-35.4 0L-35.4 -14.84Z M-32.12 -10.68L-32.12 0L-29.62 0L-29.62 -10.68ZM-32 -12.87C-31.69 -12.58 -31.31 -12.44 -30.86 -12.44C-30.39 -12.44 -30.01 -12.59 -29.71 -12.89C-29.41 -13.19 -29.26 -13.56 -29.26 -14C-29.26 -14.41 -29.41 -14.76 -29.72 -15.03C-30.03 -15.3 -30.41 -15.44 -30.86 -15.44C-31.31 -15.44 -31.69 -15.3 -32 -15.01C-32.31 -14.72 -32.46 -14.37 -32.46 -13.94C-32.46 -13.51 -32.31 -13.16 -32 -12.87Z M-18.65 -9.67C-19.48 -10.42 -20.69 -10.8 -22.26 -10.8C-23.14 -10.8 -23.97 -10.69 -24.76 -10.46C-25.55 -10.23 -26.22 -9.91 -26.78 -9.48L-25.8 -7.66C-25.4 -7.99 -24.91 -8.25 -24.33 -8.44C-23.75 -8.63 -23.16 -8.72 -22.56 -8.72C-21.68 -8.72 -21.02 -8.52 -20.57 -8.12C-20.12 -7.72 -19.9 -7.15 -19.9 -6.4L-19.9 -6.24L-22.66 -6.24C-24.19 -6.24 -25.32 -5.95 -26.03 -5.37C-26.74 -4.79 -27.1 -4.02 -27.1 -3.06C-27.1 -2.45 -26.94 -1.9 -26.61 -1.41C-26.28 -0.92 -25.82 -0.54 -25.22 -0.27C-24.62 0 -23.92 0.14 -23.12 0.14C-22.32 0.14 -21.64 0.02 -21.07 -0.23C-20.5 -0.48 -20.07 -0.83 -19.76 -1.3L-19.76 0L-17.4 0L-17.4 -6.26C-17.4 -7.78 -17.82 -8.92 -18.65 -9.67ZM-20.93 -2.11C-21.42 -1.82 -21.97 -1.68 -22.6 -1.68C-23.24 -1.68 -23.74 -1.81 -24.1 -2.08C-24.46 -2.35 -24.64 -2.71 -24.64 -3.16C-24.64 -4.11 -23.92 -4.58 -22.48 -4.58L-19.9 -4.58L-19.9 -3.34C-20.1 -2.81 -20.44 -2.4 -20.93 -2.11Z M-5.49 -10.12C-6.31 -10.57 -7.24 -10.8 -8.28 -10.8C-8.97 -10.8 -9.61 -10.68 -10.19 -10.44C-10.77 -10.2 -11.27 -9.85 -11.7 -9.38L-11.7 -14.84L-14.2 -14.84L-14.2 0L-11.82 0L-11.82 -1.38C-11.41 -0.87 -10.9 -0.49 -10.29 -0.24C-9.68 0.01 -9.01 0.14 -8.28 0.14C-7.24 0.14 -6.31 -0.09 -5.49 -0.54C-4.67 -0.99 -4.03 -1.64 -3.56 -2.47C-3.09 -3.3 -2.86 -4.26 -2.86 -5.34C-2.86 -6.42 -3.09 -7.37 -3.56 -8.2C-4.03 -9.03 -4.67 -9.67 -5.49 -10.12ZM-6.29 -2.92C-6.88 -2.31 -7.64 -2 -8.56 -2C-9.16 -2 -9.7 -2.14 -10.18 -2.41C-10.66 -2.68 -11.04 -3.07 -11.32 -3.58C-11.6 -4.09 -11.74 -4.67 -11.74 -5.34C-11.74 -6.01 -11.6 -6.59 -11.32 -7.1C-11.04 -7.61 -10.66 -8 -10.18 -8.27C-9.7 -8.54 -9.16 -8.68 -8.56 -8.68C-7.64 -8.68 -6.88 -8.37 -6.29 -7.76C-5.7 -7.15 -5.4 -6.34 -5.4 -5.34C-5.4 -4.34 -5.7 -3.53 -6.29 -2.92Z M-0.48 -14.84L-0.48 0L2.02 0L2.02 -14.84Z M15.3 -4.54C15.33 -4.86 15.34 -5.11 15.34 -5.28C15.34 -6.37 15.11 -7.34 14.65 -8.17C14.19 -9 13.55 -9.65 12.73 -10.11C11.91 -10.57 10.98 -10.8 9.94 -10.8C8.89 -10.8 7.94 -10.57 7.1 -10.1C6.26 -9.63 5.6 -8.98 5.13 -8.15C4.66 -7.32 4.42 -6.38 4.42 -5.34C4.42 -4.29 4.66 -3.34 5.15 -2.51C5.64 -1.68 6.33 -1.03 7.22 -0.56C8.11 -0.09 9.15 0.14 10.32 0.14C11.24 0.14 12.07 -0.01 12.8 -0.3C13.53 -0.59 14.14 -1.03 14.62 -1.6L13.28 -3.14C12.52 -2.37 11.55 -1.98 10.38 -1.98C9.46 -1.98 8.69 -2.21 8.07 -2.67C7.45 -3.13 7.07 -3.75 6.92 -4.54ZM7.91 -8.09C8.46 -8.56 9.14 -8.8 9.94 -8.8C10.75 -8.8 11.43 -8.56 11.98 -8.08C12.53 -7.6 12.85 -6.97 12.96 -6.2L6.9 -6.2C7.02 -6.99 7.36 -7.62 7.91 -8.09Z M19.72 -2.72C19.41 -3.03 19.03 -3.18 18.56 -3.18C18.09 -3.18 17.71 -3.03 17.4 -2.72C17.09 -2.41 16.94 -2.01 16.94 -1.52C16.94 -1.17 17.02 -0.87 17.19 -0.61C17.36 -0.35 17.59 -0.16 17.88 -0.04L17.08 3.02L18.7 3.02L19.72 0.2C19.91 -0.27 20.03 -0.62 20.09 -0.85C20.15 -1.08 20.18 -1.31 20.18 -1.52C20.18 -2.01 20.03 -2.41 19.72 -2.72Z M37.46 -3.24L38.86 0L41.58 0L35.26 -14L32.7 -14L26.4 0L29.08 0L30.46 -3.24ZM36.6 -5.28L31.34 -5.28L33.96 -11.4Z M43.36 -14L43.36 0L45.96 0L45.96 -14Z M55.26 -14L55.26 0L61.38 0C62.87 0 64.2 -0.29 65.36 -0.87C66.52 -1.45 67.42 -2.27 68.06 -3.33C68.7 -4.39 69.02 -5.61 69.02 -7C69.02 -8.39 68.7 -9.61 68.06 -10.67C67.42 -11.73 66.52 -12.55 65.36 -13.13C64.2 -13.71 62.87 -14 61.38 -14ZM61.26 -2.2L57.86 -2.2L57.86 -11.8L61.26 -11.8C62.29 -11.8 63.19 -11.6 63.97 -11.21C64.75 -10.82 65.35 -10.26 65.77 -9.53C66.19 -8.8 66.4 -7.96 66.4 -7C66.4 -6.04 66.19 -5.2 65.77 -4.47C65.35 -3.74 64.75 -3.18 63.97 -2.79C63.19 -2.4 62.29 -2.2 61.26 -2.2Z M77.72 -10.8C75.91 -10.8 74.64 -10.24 73.92 -9.12L73.92 -10.68L71.54 -10.68L71.54 0L74.04 0L74.04 -5.18C74.04 -6.25 74.31 -7.06 74.86 -7.63C75.41 -8.2 76.17 -8.48 77.14 -8.48C77.31 -8.48 77.51 -8.46 77.72 -8.42Z M79.84 -10.68L79.84 0L82.34 0L82.34 -10.68ZM79.96 -12.87C80.27 -12.58 80.65 -12.44 81.1 -12.44C81.57 -12.44 81.95 -12.59 82.25 -12.89C82.55 -13.19 82.7 -13.56 82.7 -14C82.7 -14.41 82.55 -14.76 82.24 -15.03C81.93 -15.3 81.55 -15.44 81.1 -15.44C80.65 -15.44 80.27 -15.3 79.96 -15.01C79.65 -14.72 79.5 -14.37 79.5 -13.94C79.5 -13.51 79.65 -13.16 79.96 -12.87Z M95.62 -10.68L93.22 -10.68L89.8 -2.76L86.48 -10.68L83.88 -10.68L88.46 0L91.04 0Z M106.88 -4.54C106.91 -4.86 106.92 -5.11 106.92 -5.28C106.92 -6.37 106.69 -7.34 106.23 -8.17C105.77 -9 105.13 -9.65 104.31 -10.11C103.49 -10.57 102.56 -10.8 101.52 -10.8C100.47 -10.8 99.52 -10.57 98.68 -10.1C97.84 -9.63 97.18 -8.98 96.71 -8.15C96.24 -7.32 96 -6.38 96 -5.34C96 -4.29 96.24 -3.34 96.73 -2.51C97.22 -1.68 97.91 -1.03 98.8 -0.56C99.69 -0.09 100.73 0.14 101.9 0.14C102.82 0.14 103.65 -0.01 104.38 -0.3C105.11 -0.59 105.72 -1.03 106.2 -1.6L104.86 -3.14C104.1 -2.37 103.13 -1.98 101.96 -1.98C101.04 -1.98 100.27 -2.21 99.65 -2.67C99.03 -3.13 98.65 -3.75 98.5 -4.54ZM99.49 -8.09C100.04 -8.56 100.72 -8.8 101.52 -8.8C102.33 -8.8 103.01 -8.56 103.56 -8.08C104.11 -7.6 104.43 -6.97 104.54 -6.2L98.48 -6.2C98.6 -6.99 98.94 -7.62 99.49 -8.09Z M118.62 -9.62C117.81 -10.41 116.73 -10.8 115.38 -10.8C114.59 -10.8 113.89 -10.67 113.26 -10.42C112.63 -10.17 112.11 -9.79 111.7 -9.3L111.7 -10.68L109.32 -10.68L109.32 0L111.82 0L111.82 -5.4C111.82 -6.44 112.09 -7.24 112.62 -7.79C113.15 -8.34 113.88 -8.62 114.8 -8.62C115.61 -8.62 116.24 -8.38 116.68 -7.91C117.12 -7.44 117.34 -6.73 117.34 -5.8L117.34 0L119.84 0L119.84 -6.12C119.84 -7.67 119.43 -8.83 118.62 -9.62Z"></path></g></g></svg>