<svg id="SvgjsSvg1677" width="150" height="75" xmlns="http://www.w3.org/2000/svg" version="1.1" xlink="http://www.w3.org/1999/xlink" xmlns:svgjs="http://svgjs.com/svgjs" preserveAspectRatio="xMidYMid meet" viewBox="75 0 300 220" overflow="visible"><defs id="SvgjsDefs1678"></defs>
<g id="SvgjsG1679" opacity="1">
	<g id="SvgjsG1680" class="vLYVPGVLh" transform="translate(-0.7971940924639889, 0) scale(1.1404799999999997)" light-content="false" non-strokable="false" fill="#5f1d8b">
    	<path d="M44 0l43.301 25v50L44 100 .699 75V25z"></path>
    </g>
	<g id="SvgjsG1681" class="kYZu8YwsQ1" transform="translate(17.403529693467302, 25.044248123407037) scale(0.6396014544318268)" light-content="true" non-strokable="false" fill="#ffffff">
    	<path d="M0 26.562v46.875h1.563V26.562zm98.438 0v46.875h1.563V26.562zm-93.75 6.25v6.25h28.125v-6.25zm17.188 9.375v6.25h42.188v-6.25zm35.938 9.375v6.25h14.062v-6.25zm7.813 9.375v6.25h29.688v-6.25z"></path>
    </g>
    <g id="SvgjsG1682" class="text" transform="translate(257.91784285648436, 57.22399923706054) scale(1)" light-content="false" fill="#5f1d8b">
	<path d="M-105.87 -39.03C-108.59 -40.21 -111.71 -40.8 -115.23 -40.8C-117.99 -40.8 -120.6 -40.33 -123.06 -39.39C-125.52 -38.45 -127.5 -37.07 -129 -35.25C-130.5 -33.43 -131.25 -31.22 -131.25 -28.62C-131.25 -26.42 -130.76 -24.56 -129.78 -23.04C-128.8 -21.52 -127.62 -20.31 -126.24 -19.41C-124.86 -18.51 -123.01 -17.48 -120.69 -16.32C-118.77 -15.4 -117.25 -14.6 -116.13 -13.92C-115.01 -13.24 -114.08 -12.39 -113.34 -11.37C-112.6 -10.35 -112.23 -9.12 -112.23 -7.68C-112.23 -6.24 -112.66 -5.12 -113.52 -4.32C-114.38 -3.52 -115.55 -3.12 -117.03 -3.12C-118.83 -3.12 -120.09 -3.72 -120.81 -4.92C-121.53 -6.12 -121.89 -7.78 -121.89 -9.9C-121.89 -10.9 -121.77 -12 -121.53 -13.2C-122.29 -13.44 -123.33 -13.56 -124.65 -13.56C-126.81 -13.56 -128.6 -12.95 -130.02 -11.73C-131.44 -10.51 -132.15 -8.86 -132.15 -6.78C-132.15 -3.86 -130.74 -1.78 -127.92 -0.54C-125.1 0.7 -121.75 1.32 -117.87 1.32C-112.87 1.32 -108.79 0.28 -105.63 -1.8C-102.47 -3.88 -100.89 -7.12 -100.89 -11.52C-100.89 -13.72 -101.38 -15.58 -102.36 -17.1C-103.34 -18.62 -104.53 -19.83 -105.93 -20.73C-107.33 -21.63 -109.19 -22.66 -111.51 -23.82C-113.43 -24.74 -114.95 -25.54 -116.07 -26.22C-117.19 -26.9 -118.12 -27.75 -118.86 -28.77C-119.6 -29.79 -119.97 -31.02 -119.97 -32.46C-119.97 -33.66 -119.62 -34.61 -118.92 -35.31C-118.22 -36.01 -117.27 -36.36 -116.07 -36.36C-113.39 -36.36 -112.05 -34.72 -112.05 -31.44C-112.05 -30.16 -112.17 -28.86 -112.41 -27.54C-111.53 -27.26 -110.49 -27.12 -109.29 -27.12C-107.09 -27.12 -105.29 -27.64 -103.89 -28.68C-102.49 -29.72 -101.79 -31.26 -101.79 -33.3C-101.79 -35.94 -103.15 -37.85 -105.87 -39.03Z M-68.37 -39.6L-83.31 -39.6L-94.11 0L-86.31 0L-84.15 -9.48L-73.71 -9.48L-71.49 0L-58.35 0ZM-83.01 -14.52L-78.99 -32.28L-74.85 -14.52Z M-25.83 -39.6L-49.29 -39.6L-49.29 0L-36.45 0L-36.45 -16.98L-27.63 -16.98L-27.63 -22.02L-36.45 -22.02L-36.45 -34.56L-25.83 -34.56Z M6.69 -39.6L-16.77 -39.6L-16.77 0L7.11 0L7.59 -5.04L-3.93 -5.04L-3.93 -17.82L4.89 -17.82L4.89 -22.86L-3.93 -22.86L-3.93 -34.56L6.69 -34.56Z M55.41 -39.6L40.47 -39.6L29.67 0L37.47 0L39.63 -9.48L50.07 -9.48L52.29 0L65.43 0ZM40.77 -14.52L44.79 -32.28L48.93 -14.52Z M86.49 -21.9C86.49 -31.54 88.39 -36.36 92.19 -36.36C93.83 -36.36 95.01 -35.73 95.73 -34.47C96.45 -33.21 96.81 -31.58 96.81 -29.58C96.81 -28.58 96.69 -27.48 96.45 -26.28C97.21 -26.04 98.25 -25.92 99.57 -25.92C101.69 -25.92 103.47 -26.53 104.91 -27.75C106.35 -28.97 107.07 -30.62 107.07 -32.7C107.07 -38.1 102.39 -40.8 93.03 -40.8C86.27 -40.8 81.19 -38.99 77.79 -35.37C74.39 -31.75 72.69 -26.48 72.69 -19.56C72.69 -13.32 74.29 -8.28 77.49 -4.44C80.69 -0.6 85.55 1.32 92.07 1.32C97.35 1.32 102.07 0.5 106.23 -1.14L106.23 -19.02L96.87 -18.18L97.29 -6.72C96.33 -6.4 95.31 -6.24 94.23 -6.24C91.07 -6.24 88.99 -7.65 87.99 -10.47C86.99 -13.29 86.49 -17.1 86.49 -21.9Z M129.99 -39.6L117.15 -39.6L117.15 0L129.99 0Z"></path>
	</g>
	<g id="SvgjsG1683" class="text" transform="translate(285.82784651859373, 92.82400068664549) scale(1)" light-content="false" fill="#2b2b2b">
		<path d="M-151.36 -15.53C-152.2 -16.06 -153.3 -16.32 -154.68 -16.32C-156.07 -16.32 -157.22 -15.96 -158.12 -15.25C-159.03 -14.54 -159.48 -13.54 -159.48 -12.26C-159.48 -11.46 -159.3 -10.76 -158.95 -10.14C-158.6 -9.52 -158.17 -9 -157.67 -8.56C-157.16 -8.12 -156.5 -7.62 -155.66 -7.06C-154.96 -6.58 -154.4 -6.17 -154 -5.83C-153.59 -5.5 -153.25 -5.11 -152.98 -4.68C-152.7 -4.25 -152.57 -3.77 -152.57 -3.24C-152.57 -2.57 -152.79 -2.04 -153.24 -1.64C-153.69 -1.25 -154.26 -1.06 -154.97 -1.06C-156.41 -1.06 -157.13 -1.82 -157.13 -3.34C-157.13 -3.82 -157.07 -4.22 -156.96 -4.54C-157.23 -4.79 -157.65 -4.92 -158.21 -4.92C-158.77 -4.92 -159.22 -4.74 -159.55 -4.38C-159.89 -4.02 -160.06 -3.55 -160.06 -2.98C-160.06 -1.78 -159.6 -0.89 -158.68 -0.32C-157.76 0.24 -156.59 0.53 -155.18 0.53C-153.63 0.53 -152.37 0.14 -151.39 -0.65C-150.42 -1.43 -149.93 -2.54 -149.93 -3.96C-149.93 -4.76 -150.1 -5.47 -150.46 -6.08C-150.81 -6.7 -151.24 -7.23 -151.74 -7.67C-152.24 -8.11 -152.91 -8.61 -153.74 -9.17C-154.45 -9.65 -155 -10.06 -155.41 -10.39C-155.82 -10.73 -156.16 -11.11 -156.43 -11.54C-156.7 -11.98 -156.84 -12.46 -156.84 -12.98C-156.84 -13.56 -156.67 -14 -156.32 -14.29C-155.98 -14.59 -155.5 -14.74 -154.9 -14.74C-153.65 -14.74 -153.02 -14.03 -153.02 -12.62C-153.02 -12.18 -153.09 -11.78 -153.22 -11.42C-152.94 -11.17 -152.53 -11.04 -151.97 -11.04C-151.39 -11.04 -150.94 -11.22 -150.6 -11.58C-150.26 -11.94 -150.1 -12.41 -150.1 -12.98C-150.1 -14.15 -150.52 -15 -151.36 -15.53Z M-142.45 0.13C-141.87 -0.13 -141.42 -0.54 -141.12 -1.1C-141.06 -0.66 -140.87 -0.3 -140.57 -0.04C-140.26 0.23 -139.88 0.36 -139.42 0.36C-139.1 0.36 -138.81 0.3 -138.56 0.17C-138.32 0.04 -138.13 -0.14 -138 -0.38C-138.5 -0.66 -138.74 -1.18 -138.74 -1.97L-138.74 -8.21C-138.74 -9.3 -138.88 -10.16 -139.14 -10.81C-139.4 -11.46 -139.84 -11.94 -140.45 -12.25C-141.06 -12.56 -141.89 -12.72 -142.94 -12.72C-144.38 -12.72 -145.54 -12.48 -146.4 -11.99C-147.26 -11.5 -147.7 -10.87 -147.7 -10.1C-147.7 -9.56 -147.53 -9.14 -147.19 -8.86C-146.86 -8.57 -146.4 -8.42 -145.82 -8.42C-145.41 -8.42 -145.09 -8.51 -144.86 -8.69C-144.99 -9.07 -145.06 -9.43 -145.06 -9.77C-145.06 -10.3 -144.87 -10.71 -144.5 -11C-144.14 -11.3 -143.67 -11.45 -143.11 -11.45C-142.44 -11.45 -141.98 -11.25 -141.74 -10.86C-141.5 -10.47 -141.38 -9.87 -141.38 -9.07L-141.38 -6.98C-146.01 -6.98 -148.32 -5.69 -148.32 -3.1C-148.32 -2.02 -147.95 -1.15 -147.2 -0.48C-146.46 0.19 -145.54 0.53 -144.43 0.53C-143.7 0.53 -143.04 0.4 -142.45 0.13ZM-141.91 -1.88C-142.26 -1.35 -142.79 -1.08 -143.5 -1.08C-144.1 -1.08 -144.58 -1.27 -144.92 -1.66C-145.27 -2.04 -145.44 -2.55 -145.44 -3.19C-145.44 -4.92 -144.09 -5.78 -141.38 -5.78L-141.38 -3.89C-141.38 -3.09 -141.56 -2.42 -141.91 -1.88Z M-135.38 0.29L-132.74 0L-132.74 -11.16L-130.15 -11.16L-130.15 -12.24L-132.77 -12.24L-132.77 -13.54C-132.77 -14.38 -132.66 -15.04 -132.44 -15.52C-132.23 -15.99 -131.81 -16.22 -131.18 -16.22C-130.78 -16.22 -130.48 -16.11 -130.28 -15.88C-130.08 -15.64 -129.98 -15.32 -129.98 -14.9C-129.98 -14.57 -130.05 -14.21 -130.18 -13.82C-129.95 -13.65 -129.63 -13.56 -129.22 -13.56C-128.64 -13.56 -128.18 -13.7 -127.85 -13.99C-127.51 -14.28 -127.34 -14.7 -127.34 -15.24C-127.34 -15.98 -127.71 -16.5 -128.44 -16.81C-129.16 -17.12 -130.03 -17.28 -131.04 -17.28C-133.74 -17.28 -135.17 -16.03 -135.31 -13.54L-135.38 -12.24L-137.09 -12.24L-137.09 -11.16L-135.38 -11.16Z M-119.83 -2.35C-119.83 -2.86 -120.02 -3.21 -120.38 -3.38C-120.69 -2.73 -121.11 -2.22 -121.64 -1.86C-122.18 -1.5 -122.8 -1.32 -123.5 -1.32C-124.46 -1.32 -125.13 -1.7 -125.51 -2.45C-125.88 -3.2 -126.1 -4.21 -126.14 -5.47C-125.73 -5.44 -125.29 -5.42 -124.82 -5.42C-123.16 -5.42 -121.84 -5.7 -120.88 -6.26C-119.91 -6.82 -119.42 -7.8 -119.42 -9.19C-119.42 -10.31 -119.78 -11.18 -120.5 -11.8C-121.22 -12.41 -122.18 -12.72 -123.36 -12.72C-125.23 -12.72 -126.63 -12.08 -127.55 -10.81C-128.47 -9.54 -128.93 -7.87 -128.93 -5.81C-128.93 -3.87 -128.5 -2.33 -127.66 -1.19C-126.81 -0.04 -125.5 0.53 -123.74 0.53C-123.12 0.53 -122.5 0.41 -121.9 0.18C-121.29 -0.05 -120.79 -0.39 -120.41 -0.83C-120.02 -1.27 -119.83 -1.78 -119.83 -2.35ZM-125.57 -10C-125.22 -10.9 -124.61 -11.35 -123.74 -11.35C-123.18 -11.35 -122.76 -11.13 -122.48 -10.69C-122.2 -10.25 -122.06 -9.7 -122.06 -9.05C-122.06 -7.43 -123.07 -6.62 -125.09 -6.62C-125.31 -6.62 -125.66 -6.64 -126.14 -6.67C-126.11 -7.98 -125.92 -9.09 -125.57 -10Z M-114.55 -1.81C-114.87 -2.17 -115.34 -2.35 -115.97 -2.35C-116.5 -2.35 -116.94 -2.25 -117.31 -2.04C-117.14 -1.72 -117.01 -1.42 -116.93 -1.14C-116.85 -0.86 -116.81 -0.54 -116.81 -0.19C-116.81 0.88 -117.1 1.86 -117.7 2.74C-117.42 2.85 -117.12 2.9 -116.78 2.9C-116.29 2.9 -115.83 2.75 -115.42 2.44C-115 2.12 -114.67 1.72 -114.43 1.22C-114.19 0.73 -114.07 0.22 -114.07 -0.29C-114.07 -0.94 -114.23 -1.45 -114.55 -1.81Z M-98.05 -8.71C-97.5 -9.48 -97.22 -10.41 -97.22 -11.5C-97.22 -14.46 -99.12 -15.94 -102.91 -15.94C-104.03 -15.94 -105.54 -15.87 -107.42 -15.74L-107.42 0L-104.62 0L-104.62 -14.14C-104.09 -14.22 -103.58 -14.26 -103.08 -14.26C-102.07 -14.26 -101.32 -14.02 -100.84 -13.55C-100.35 -13.08 -100.1 -12.36 -100.1 -11.4C-100.1 -10.25 -100.39 -9.4 -100.97 -8.87C-101.54 -8.33 -102.43 -8.06 -103.63 -8.06C-103.63 -7.92 -103.58 -7.76 -103.49 -7.58L-99.22 0L-96.14 0L-100.32 -7.15C-99.36 -7.42 -98.6 -7.94 -98.05 -8.71Z M-86.26 -2.35C-86.26 -2.86 -86.44 -3.21 -86.81 -3.38C-87.11 -2.73 -87.53 -2.22 -88.07 -1.86C-88.6 -1.5 -89.22 -1.32 -89.93 -1.32C-90.89 -1.32 -91.56 -1.7 -91.93 -2.45C-92.31 -3.2 -92.52 -4.21 -92.57 -5.47C-92.15 -5.44 -91.71 -5.42 -91.25 -5.42C-89.58 -5.42 -88.27 -5.7 -87.3 -6.26C-86.33 -6.82 -85.85 -7.8 -85.85 -9.19C-85.85 -10.31 -86.21 -11.18 -86.93 -11.8C-87.65 -12.41 -88.6 -12.72 -89.78 -12.72C-91.66 -12.72 -93.05 -12.08 -93.97 -10.81C-94.89 -9.54 -95.35 -7.87 -95.35 -5.81C-95.35 -3.87 -94.93 -2.33 -94.08 -1.19C-93.23 -0.04 -91.93 0.53 -90.17 0.53C-89.54 0.53 -88.93 0.41 -88.32 0.18C-87.71 -0.05 -87.22 -0.39 -86.83 -0.83C-86.45 -1.27 -86.26 -1.78 -86.26 -2.35ZM-91.99 -10C-91.64 -10.9 -91.03 -11.35 -90.17 -11.35C-89.61 -11.35 -89.19 -11.13 -88.91 -10.69C-88.63 -10.25 -88.49 -9.7 -88.49 -9.05C-88.49 -7.43 -89.5 -6.62 -91.51 -6.62C-91.74 -6.62 -92.09 -6.64 -92.57 -6.67C-92.54 -7.98 -92.34 -9.09 -91.99 -10Z M-80.86 -17.09L-83.5 -16.8L-83.5 -1.66C-83.5 -1.02 -83.34 -0.52 -83.04 -0.17C-82.74 0.18 -82.28 0.36 -81.67 0.36C-81.35 0.36 -81.04 0.3 -80.75 0.17C-80.45 0.04 -80.24 -0.14 -80.11 -0.38C-80.61 -0.66 -80.86 -1.18 -80.86 -1.97Z M-74.87 -16.9C-75.2 -17.15 -75.62 -17.28 -76.15 -17.28C-76.68 -17.28 -77.12 -17.15 -77.46 -16.88C-77.8 -16.62 -77.98 -16.24 -77.98 -15.74C-77.98 -15.26 -77.82 -14.9 -77.5 -14.64C-77.18 -14.38 -76.75 -14.26 -76.22 -14.26C-75.68 -14.26 -75.24 -14.39 -74.89 -14.65C-74.55 -14.92 -74.38 -15.3 -74.38 -15.79C-74.38 -16.27 -74.54 -16.64 -74.87 -16.9ZM-74.9 -1.97L-74.9 -12.24L-77.54 -12.24L-77.54 -1.66C-77.54 -1.02 -77.39 -0.52 -77.09 -0.17C-76.78 0.18 -76.33 0.36 -75.72 0.36C-75.38 0.36 -75.07 0.3 -74.78 0.17C-74.5 0.04 -74.29 -0.14 -74.16 -0.38C-74.66 -0.66 -74.9 -1.18 -74.9 -1.97Z M-66.47 0.13C-65.88 -0.13 -65.44 -0.54 -65.14 -1.1C-65.07 -0.66 -64.89 -0.3 -64.58 -0.04C-64.28 0.23 -63.9 0.36 -63.43 0.36C-63.11 0.36 -62.83 0.3 -62.58 0.17C-62.33 0.04 -62.14 -0.14 -62.02 -0.38C-62.51 -0.66 -62.76 -1.18 -62.76 -1.97L-62.76 -8.21C-62.76 -9.3 -62.89 -10.16 -63.16 -10.81C-63.42 -11.46 -63.86 -11.94 -64.46 -12.25C-65.07 -12.56 -65.9 -12.72 -66.96 -12.72C-68.4 -12.72 -69.55 -12.48 -70.42 -11.99C-71.28 -11.5 -71.71 -10.87 -71.71 -10.1C-71.71 -9.56 -71.54 -9.14 -71.21 -8.86C-70.87 -8.57 -70.42 -8.42 -69.84 -8.42C-69.42 -8.42 -69.1 -8.51 -68.88 -8.69C-69.01 -9.07 -69.07 -9.43 -69.07 -9.77C-69.07 -10.3 -68.89 -10.71 -68.52 -11C-68.15 -11.3 -67.69 -11.45 -67.13 -11.45C-66.46 -11.45 -66 -11.25 -65.76 -10.86C-65.52 -10.47 -65.4 -9.87 -65.4 -9.07L-65.4 -6.98C-70.02 -6.98 -72.34 -5.69 -72.34 -3.1C-72.34 -2.02 -71.96 -1.15 -71.22 -0.48C-70.48 0.19 -69.55 0.53 -68.45 0.53C-67.71 0.53 -67.05 0.4 -66.47 0.13ZM-65.93 -1.88C-66.28 -1.35 -66.81 -1.08 -67.51 -1.08C-68.12 -1.08 -68.6 -1.27 -68.94 -1.66C-69.28 -2.04 -69.46 -2.55 -69.46 -3.19C-69.46 -4.92 -68.1 -5.78 -65.4 -5.78L-65.4 -3.89C-65.4 -3.09 -65.58 -2.42 -65.93 -1.88Z M-56.9 -14.38L-56.9 -17.09L-59.54 -16.8L-59.54 -0.6C-58.9 -0.25 -58.15 0.03 -57.28 0.23C-56.4 0.43 -55.58 0.53 -54.79 0.53C-52.97 0.53 -51.62 -0.1 -50.74 -1.34C-49.86 -2.59 -49.42 -4.24 -49.42 -6.29C-49.42 -8.14 -49.76 -9.68 -50.45 -10.9C-51.14 -12.11 -52.24 -12.72 -53.76 -12.72C-54.5 -12.72 -55.17 -12.52 -55.78 -12.13C-56.38 -11.74 -56.84 -11.21 -57.14 -10.54C-56.98 -11.35 -56.9 -12.63 -56.9 -14.38ZM-54.67 -0.91C-55.46 -0.91 -56.2 -1.15 -56.9 -1.63L-56.9 -6.24C-56.9 -7.58 -56.74 -8.69 -56.42 -9.56C-56.1 -10.44 -55.48 -10.87 -54.55 -10.87C-53.64 -10.87 -53.04 -10.43 -52.74 -9.54C-52.44 -8.65 -52.3 -7.53 -52.3 -6.17C-52.3 -4.65 -52.45 -3.39 -52.75 -2.4C-53.06 -1.41 -53.7 -0.91 -54.67 -0.91Z M-44.38 -17.09L-47.02 -16.8L-47.02 -1.66C-47.02 -1.02 -46.86 -0.52 -46.56 -0.17C-46.26 0.18 -45.8 0.36 -45.19 0.36C-44.87 0.36 -44.56 0.3 -44.27 0.17C-43.97 0.04 -43.76 -0.14 -43.63 -0.38C-44.13 -0.66 -44.38 -1.18 -44.38 -1.97Z M-32.74 -2.35C-32.74 -2.86 -32.92 -3.21 -33.29 -3.38C-33.59 -2.73 -34.01 -2.22 -34.55 -1.86C-35.08 -1.5 -35.7 -1.32 -36.41 -1.32C-37.37 -1.32 -38.04 -1.7 -38.41 -2.45C-38.79 -3.2 -39 -4.21 -39.05 -5.47C-38.63 -5.44 -38.19 -5.42 -37.73 -5.42C-36.06 -5.42 -34.75 -5.7 -33.78 -6.26C-32.81 -6.82 -32.33 -7.8 -32.33 -9.19C-32.33 -10.31 -32.69 -11.18 -33.41 -11.8C-34.13 -12.41 -35.08 -12.72 -36.26 -12.72C-38.14 -12.72 -39.53 -12.08 -40.45 -10.81C-41.37 -9.54 -41.83 -7.87 -41.83 -5.81C-41.83 -3.87 -41.41 -2.33 -40.56 -1.19C-39.71 -0.04 -38.41 0.53 -36.65 0.53C-36.02 0.53 -35.41 0.41 -34.8 0.18C-34.19 -0.05 -33.7 -0.39 -33.31 -0.83C-32.93 -1.27 -32.74 -1.78 -32.74 -2.35ZM-38.47 -10C-38.12 -10.9 -37.51 -11.35 -36.65 -11.35C-36.09 -11.35 -35.67 -11.13 -35.39 -10.69C-35.11 -10.25 -34.97 -9.7 -34.97 -9.05C-34.97 -7.43 -35.98 -6.62 -37.99 -6.62C-38.22 -6.62 -38.57 -6.64 -39.05 -6.67C-39.02 -7.98 -38.82 -9.09 -38.47 -10Z M-27.46 -1.81C-27.78 -2.17 -28.25 -2.35 -28.87 -2.35C-29.4 -2.35 -29.85 -2.25 -30.22 -2.04C-30.04 -1.72 -29.91 -1.42 -29.83 -1.14C-29.75 -0.86 -29.71 -0.54 -29.71 -0.19C-29.71 0.88 -30.01 1.86 -30.6 2.74C-30.33 2.85 -30.02 2.9 -29.69 2.9C-29.19 2.9 -28.74 2.75 -28.32 2.44C-27.9 2.12 -27.58 1.72 -27.34 1.22C-27.1 0.73 -26.98 0.22 -26.98 -0.29C-26.98 -0.94 -27.14 -1.45 -27.46 -1.81Z M-13.8 -15.84L-17.38 -15.84L-21.77 0L-19.13 0L-18.19 -4.03L-13.49 -4.03L-12.53 0L-9.7 0ZM-17.76 -5.81L-15.84 -14.04L-13.9 -5.81Z M-5.45 -15.84L-8.26 -15.84L-8.26 0L-5.45 0Z M10.61 -8C11.42 -8.86 11.83 -9.98 11.83 -11.38C11.83 -12.99 11.34 -14.16 10.36 -14.87C9.37 -15.58 7.97 -15.94 6.14 -15.94C5.02 -15.94 3.52 -15.87 1.63 -15.74L1.63 0L4.44 0L4.44 -14.14C4.97 -14.22 5.48 -14.26 5.98 -14.26C6.98 -14.26 7.73 -14.01 8.22 -13.52C8.71 -13.04 8.95 -12.29 8.95 -11.28C8.95 -10.1 8.66 -9.22 8.09 -8.66C7.51 -8.1 6.62 -7.82 5.4 -7.82C5.4 -7.42 5.59 -7.14 5.98 -6.97C6.36 -6.8 6.81 -6.72 7.32 -6.72C8.7 -6.72 9.79 -7.15 10.61 -8Z M16.6 -9.49C16.8 -10.41 17.24 -10.87 17.93 -10.87C18.68 -10.87 19.06 -10.42 19.06 -9.53C19.06 -9.22 19 -8.86 18.89 -8.45C19.11 -8.27 19.43 -8.18 19.85 -8.18C21.1 -8.18 21.72 -8.83 21.72 -10.13C21.72 -10.93 21.48 -11.56 21.01 -12.02C20.54 -12.49 19.9 -12.72 19.1 -12.72C18.37 -12.72 17.72 -12.51 17.16 -12.08C16.6 -11.66 16.21 -11.09 15.98 -10.37L15.86 -12.53L13.66 -12.24L13.66 0L16.3 0L16.3 -6.19C16.3 -7.47 16.4 -8.57 16.6 -9.49Z M31.56 -10.98C30.7 -12.14 29.37 -12.72 27.58 -12.72C25.8 -12.72 24.48 -12.1 23.62 -10.87C22.75 -9.64 22.32 -8.03 22.32 -6.05C22.32 -4 22.74 -2.39 23.58 -1.22C24.42 -0.06 25.75 0.53 27.58 0.53C29.43 0.53 30.78 -0.08 31.61 -1.31C32.44 -2.53 32.86 -4.19 32.86 -6.29C32.86 -8.26 32.42 -9.82 31.56 -10.98ZM29.52 -2.38C29.22 -1.4 28.57 -0.91 27.58 -0.91C26.58 -0.91 25.94 -1.4 25.64 -2.38C25.35 -3.35 25.2 -4.62 25.2 -6.17C25.2 -9.58 25.99 -11.28 27.58 -11.28C28.52 -11.28 29.16 -10.78 29.48 -9.79C29.81 -8.8 29.98 -7.59 29.98 -6.17C29.98 -4.62 29.82 -3.35 29.52 -2.38Z M37.93 -16.9C37.6 -17.15 37.18 -17.28 36.65 -17.28C36.12 -17.28 35.68 -17.15 35.34 -16.88C35 -16.62 34.82 -16.24 34.82 -15.74C34.82 -15.26 34.98 -14.9 35.3 -14.64C35.62 -14.38 36.05 -14.26 36.58 -14.26C37.12 -14.26 37.56 -14.39 37.91 -14.65C38.25 -14.92 38.42 -15.3 38.42 -15.79C38.42 -16.27 38.26 -16.64 37.93 -16.9ZM34.61 4.8C36.85 4.8 37.97 2.92 37.97 -0.84L37.97 -12.24L35.3 -12.24L35.3 -0.17C35.3 1 35.13 1.94 34.79 2.66C34.44 3.38 33.82 3.74 32.93 3.74C32.93 4.1 33.1 4.36 33.43 4.54C33.77 4.71 34.16 4.8 34.61 4.8Z M49.42 -2.35C49.42 -2.86 49.23 -3.21 48.86 -3.38C48.56 -2.73 48.14 -2.22 47.6 -1.86C47.07 -1.5 46.45 -1.32 45.74 -1.32C44.78 -1.32 44.12 -1.7 43.74 -2.45C43.36 -3.2 43.15 -4.21 43.1 -5.47C43.52 -5.44 43.96 -5.42 44.42 -5.42C46.09 -5.42 47.4 -5.7 48.37 -6.26C49.34 -6.82 49.82 -7.8 49.82 -9.19C49.82 -10.31 49.46 -11.18 48.74 -11.8C48.02 -12.41 47.07 -12.72 45.89 -12.72C44.02 -12.72 42.62 -12.08 41.7 -10.81C40.78 -9.54 40.32 -7.87 40.32 -5.81C40.32 -3.87 40.74 -2.33 41.59 -1.19C42.44 -0.04 43.74 0.53 45.5 0.53C46.13 0.53 46.74 0.41 47.35 0.18C47.96 -0.05 48.46 -0.39 48.84 -0.83C49.22 -1.27 49.42 -1.78 49.42 -2.35ZM43.68 -10C44.03 -10.9 44.64 -11.35 45.5 -11.35C46.06 -11.35 46.48 -11.13 46.76 -10.69C47.04 -10.25 47.18 -9.7 47.18 -9.05C47.18 -7.43 46.18 -6.62 44.16 -6.62C43.94 -6.62 43.58 -6.64 43.1 -6.67C43.14 -7.98 43.33 -9.09 43.68 -10Z M54.1 -6.07C54.1 -9.56 54.9 -11.3 56.5 -11.3C57.46 -11.3 57.94 -10.75 57.94 -9.65C57.94 -9.31 57.87 -8.95 57.74 -8.57C57.86 -8.49 58 -8.42 58.19 -8.38C58.37 -8.33 58.55 -8.3 58.73 -8.3C59.3 -8.3 59.76 -8.45 60.1 -8.74C60.43 -9.02 60.6 -9.44 60.6 -9.98C60.6 -10.91 60.25 -11.6 59.54 -12.05C58.84 -12.5 57.94 -12.72 56.86 -12.72C55 -12.72 53.61 -12.08 52.69 -10.81C51.77 -9.54 51.31 -7.87 51.31 -5.81C51.31 -3.87 51.74 -2.33 52.58 -1.19C53.43 -0.04 54.74 0.53 56.5 0.53C57.12 0.53 57.73 0.41 58.32 0.18C58.91 -0.05 59.4 -0.39 59.77 -0.83C60.15 -1.27 60.34 -1.78 60.34 -2.35C60.34 -2.64 60.28 -2.87 60.16 -3.04C60.04 -3.2 59.84 -3.35 59.57 -3.48C59.39 -2.79 59.05 -2.26 58.55 -1.88C58.04 -1.51 57.44 -1.32 56.74 -1.32C55.7 -1.32 55 -1.76 54.64 -2.63C54.28 -3.5 54.1 -4.65 54.1 -6.07Z M61.37 -11.16L63.07 -11.16L63.07 -1.85C63.07 -0.38 63.72 0.36 65.02 0.36C65.46 0.36 65.86 0.24 66.2 0.01C66.55 -0.22 66.76 -0.52 66.84 -0.89C66.46 -0.95 66.18 -1.1 66 -1.34C65.82 -1.58 65.74 -1.94 65.74 -2.42L65.74 -11.16L67.99 -11.16L67.99 -12.24L65.78 -12.24L65.78 -14.62L65.04 -14.62C64.59 -14.04 64.04 -13.51 63.4 -13.03C62.75 -12.55 62.06 -12.17 61.34 -11.88Z M80.26 -15.84L76.68 -15.84L72.29 0L74.93 0L75.86 -4.03L80.57 -4.03L81.53 0L84.36 0ZM76.3 -5.81L78.22 -14.04L80.16 -5.81Z M88.68 -11.08C88.97 -11.32 89.35 -11.45 89.83 -11.45C90.34 -11.45 90.73 -11.3 91 -11C91.26 -10.71 91.39 -10.3 91.39 -9.77C91.39 -9.43 91.33 -9.07 91.2 -8.69C91.42 -8.51 91.74 -8.42 92.16 -8.42C92.74 -8.42 93.2 -8.57 93.54 -8.86C93.88 -9.14 94.06 -9.56 94.06 -10.1C94.06 -11.03 93.69 -11.7 92.96 -12.11C92.24 -12.52 91.3 -12.72 90.17 -12.72C88.94 -12.72 87.89 -12.43 87.02 -11.84C86.16 -11.26 85.73 -10.43 85.73 -9.36C85.73 -8.69 85.88 -8.12 86.18 -7.64C86.49 -7.17 86.85 -6.78 87.28 -6.48C87.7 -6.18 88.26 -5.82 88.97 -5.42C89.85 -4.94 90.5 -4.51 90.92 -4.12C91.35 -3.72 91.56 -3.22 91.56 -2.59C91.56 -1.98 91.4 -1.52 91.09 -1.21C90.78 -0.9 90.33 -0.74 89.74 -0.74C89.19 -0.74 88.76 -0.89 88.44 -1.19C88.12 -1.48 87.96 -1.89 87.96 -2.4C87.96 -2.74 88.02 -3.1 88.15 -3.48C87.93 -3.66 87.61 -3.74 87.19 -3.74C86.62 -3.74 86.16 -3.6 85.82 -3.31C85.49 -3.02 85.32 -2.61 85.32 -2.06C85.32 -1.14 85.72 -0.47 86.51 -0.07C87.3 0.33 88.28 0.53 89.45 0.53C90.79 0.53 91.9 0.2 92.77 -0.46C93.64 -1.11 94.08 -2.05 94.08 -3.26C94.08 -3.94 93.93 -4.51 93.62 -4.98C93.32 -5.45 92.96 -5.84 92.53 -6.14C92.11 -6.45 91.54 -6.79 90.84 -7.18C89.96 -7.66 89.31 -8.09 88.88 -8.48C88.46 -8.88 88.25 -9.38 88.25 -10.01C88.25 -10.47 88.39 -10.83 88.68 -11.08Z M99.34 -11.08C99.62 -11.32 100.01 -11.45 100.49 -11.45C101 -11.45 101.39 -11.3 101.65 -11C101.92 -10.71 102.05 -10.3 102.05 -9.77C102.05 -9.43 101.98 -9.07 101.86 -8.69C102.08 -8.51 102.4 -8.42 102.82 -8.42C103.39 -8.42 103.85 -8.57 104.2 -8.86C104.54 -9.14 104.71 -9.56 104.71 -10.1C104.71 -11.03 104.35 -11.7 103.62 -12.11C102.89 -12.52 101.96 -12.72 100.82 -12.72C99.59 -12.72 98.54 -12.43 97.68 -11.84C96.82 -11.26 96.38 -10.43 96.38 -9.36C96.38 -8.69 96.54 -8.12 96.84 -7.64C97.14 -7.17 97.51 -6.78 97.93 -6.48C98.36 -6.18 98.92 -5.82 99.62 -5.42C100.5 -4.94 101.16 -4.51 101.58 -4.12C102 -3.72 102.22 -3.22 102.22 -2.59C102.22 -1.98 102.06 -1.52 101.75 -1.21C101.44 -0.9 100.98 -0.74 100.39 -0.74C99.85 -0.74 99.42 -0.89 99.1 -1.19C98.78 -1.48 98.62 -1.89 98.62 -2.4C98.62 -2.74 98.68 -3.1 98.81 -3.48C98.58 -3.66 98.26 -3.74 97.85 -3.74C97.27 -3.74 96.82 -3.6 96.48 -3.31C96.14 -3.02 95.98 -2.61 95.98 -2.06C95.98 -1.14 96.37 -0.47 97.16 -0.07C97.96 0.33 98.94 0.53 100.1 0.53C101.45 0.53 102.56 0.2 103.43 -0.46C104.3 -1.11 104.74 -2.05 104.74 -3.26C104.74 -3.94 104.58 -4.51 104.28 -4.98C103.98 -5.45 103.61 -5.84 103.19 -6.14C102.76 -6.45 102.2 -6.79 101.5 -7.18C100.62 -7.66 99.96 -8.09 99.54 -8.48C99.12 -8.88 98.9 -9.38 98.9 -10.01C98.9 -10.47 99.05 -10.83 99.34 -11.08Z M109.88 -16.9C109.56 -17.15 109.13 -17.28 108.6 -17.28C108.07 -17.28 107.64 -17.15 107.29 -16.88C106.95 -16.62 106.78 -16.24 106.78 -15.74C106.78 -15.26 106.94 -14.9 107.26 -14.64C107.58 -14.38 108 -14.26 108.53 -14.26C109.07 -14.26 109.52 -14.39 109.86 -14.65C110.2 -14.92 110.38 -15.3 110.38 -15.79C110.38 -16.27 110.21 -16.64 109.88 -16.9ZM109.85 -1.97L109.85 -12.24L107.21 -12.24L107.21 -1.66C107.21 -1.02 107.36 -0.52 107.66 -0.17C107.97 0.18 108.42 0.36 109.03 0.36C109.37 0.36 109.68 0.3 109.97 0.17C110.26 0.04 110.46 -0.14 110.59 -0.38C110.1 -0.66 109.85 -1.18 109.85 -1.97Z M115.85 -11.08C116.14 -11.32 116.52 -11.45 117 -11.45C117.51 -11.45 117.9 -11.3 118.16 -11C118.43 -10.71 118.56 -10.3 118.56 -9.77C118.56 -9.43 118.5 -9.07 118.37 -8.69C118.59 -8.51 118.91 -8.42 119.33 -8.42C119.9 -8.42 120.36 -8.57 120.71 -8.86C121.05 -9.14 121.22 -9.56 121.22 -10.1C121.22 -11.03 120.86 -11.7 120.13 -12.11C119.4 -12.52 118.47 -12.72 117.34 -12.72C116.1 -12.72 115.06 -12.43 114.19 -11.84C113.33 -11.26 112.9 -10.43 112.9 -9.36C112.9 -8.69 113.05 -8.12 113.35 -7.64C113.66 -7.17 114.02 -6.78 114.44 -6.48C114.87 -6.18 115.43 -5.82 116.14 -5.42C117.02 -4.94 117.67 -4.51 118.09 -4.12C118.52 -3.72 118.73 -3.22 118.73 -2.59C118.73 -1.98 118.57 -1.52 118.26 -1.21C117.95 -0.9 117.5 -0.74 116.9 -0.74C116.36 -0.74 115.93 -0.89 115.61 -1.19C115.29 -1.48 115.13 -1.89 115.13 -2.4C115.13 -2.74 115.19 -3.1 115.32 -3.48C115.1 -3.66 114.78 -3.74 114.36 -3.74C113.78 -3.74 113.33 -3.6 112.99 -3.31C112.66 -3.02 112.49 -2.61 112.49 -2.06C112.49 -1.14 112.88 -0.47 113.68 -0.07C114.47 0.33 115.45 0.53 116.62 0.53C117.96 0.53 119.07 0.2 119.94 -0.46C120.81 -1.11 121.25 -2.05 121.25 -3.26C121.25 -3.94 121.1 -4.51 120.79 -4.98C120.49 -5.45 120.12 -5.84 119.7 -6.14C119.28 -6.45 118.71 -6.79 118.01 -7.18C117.13 -7.66 116.48 -8.09 116.05 -8.48C115.63 -8.88 115.42 -9.38 115.42 -10.01C115.42 -10.47 115.56 -10.83 115.85 -11.08Z M122.3 -11.16L124.01 -11.16L124.01 -1.85C124.01 -0.38 124.66 0.36 125.95 0.36C126.4 0.36 126.8 0.24 127.14 0.01C127.48 -0.22 127.7 -0.52 127.78 -0.89C127.39 -0.95 127.11 -1.1 126.94 -1.34C126.76 -1.58 126.67 -1.94 126.67 -2.42L126.67 -11.16L128.93 -11.16L128.93 -12.24L126.72 -12.24L126.72 -14.62L125.98 -14.62C125.53 -14.04 124.98 -13.51 124.33 -13.03C123.68 -12.55 123 -12.17 122.28 -11.88Z M135.78 0.13C136.36 -0.13 136.81 -0.54 137.11 -1.1C137.18 -0.66 137.36 -0.3 137.66 -0.04C137.97 0.23 138.35 0.36 138.82 0.36C139.14 0.36 139.42 0.3 139.67 0.17C139.92 0.04 140.1 -0.14 140.23 -0.38C139.74 -0.66 139.49 -1.18 139.49 -1.97L139.49 -8.21C139.49 -9.3 139.36 -10.16 139.09 -10.81C138.83 -11.46 138.39 -11.94 137.78 -12.25C137.18 -12.56 136.34 -12.72 135.29 -12.72C133.85 -12.72 132.7 -12.48 131.83 -11.99C130.97 -11.5 130.54 -10.87 130.54 -10.1C130.54 -9.56 130.7 -9.14 131.04 -8.86C131.38 -8.57 131.83 -8.42 132.41 -8.42C132.82 -8.42 133.14 -8.51 133.37 -8.69C133.24 -9.07 133.18 -9.43 133.18 -9.77C133.18 -10.3 133.36 -10.71 133.73 -11C134.1 -11.3 134.56 -11.45 135.12 -11.45C135.79 -11.45 136.25 -11.25 136.49 -10.86C136.73 -10.47 136.85 -9.87 136.85 -9.07L136.85 -6.98C132.22 -6.98 129.91 -5.69 129.91 -3.1C129.91 -2.02 130.28 -1.15 131.03 -0.48C131.77 0.19 132.7 0.53 133.8 0.53C134.54 0.53 135.2 0.4 135.78 0.13ZM136.32 -1.88C135.97 -1.35 135.44 -1.08 134.74 -1.08C134.13 -1.08 133.65 -1.27 133.31 -1.66C132.96 -2.04 132.79 -2.55 132.79 -3.19C132.79 -4.92 134.14 -5.78 136.85 -5.78L136.85 -3.89C136.85 -3.09 136.67 -2.42 136.32 -1.88Z M142.61 -12.24L142.61 0L145.25 0L145.25 -6.24C145.25 -7.6 145.41 -8.71 145.74 -9.58C146.07 -10.44 146.72 -10.87 147.7 -10.87C148.46 -10.87 148.96 -10.62 149.18 -10.13C149.41 -9.63 149.52 -8.88 149.52 -7.87L149.52 -1.66C149.52 -1.02 149.67 -0.52 149.98 -0.17C150.28 0.18 150.74 0.36 151.37 0.36C151.69 0.36 151.99 0.3 152.28 0.17C152.57 0.04 152.78 -0.14 152.9 -0.38C152.41 -0.66 152.16 -1.18 152.16 -1.97L152.16 -8.21C152.16 -9.73 151.9 -10.86 151.37 -11.6C150.84 -12.35 149.9 -12.72 148.56 -12.72C147.71 -12.72 146.97 -12.52 146.34 -12.12C145.71 -11.72 145.24 -11.14 144.94 -10.37L144.82 -12.53Z M153.82 -11.16L155.52 -11.16L155.52 -1.85C155.52 -0.38 156.17 0.36 157.46 0.36C157.91 0.36 158.31 0.24 158.65 0.01C159 -0.22 159.21 -0.52 159.29 -0.89C158.9 -0.95 158.62 -1.1 158.45 -1.34C158.27 -1.58 158.18 -1.94 158.18 -2.42L158.18 -11.16L160.44 -11.16L160.44 -12.24L158.23 -12.24L158.23 -14.62L157.49 -14.62C157.04 -14.04 156.49 -13.51 155.84 -13.03C155.2 -12.55 154.51 -12.17 153.79 -11.88Z">
	</path>
</g>
</g>
</svg>